<svg width="85" height="14" viewBox="0 0 85 14" fill="none" xmlns="http://www.w3.org/2000/svg">
<path d="M0 0.288066H1.98644L6.83569 10.7545L11.6849 0.288066H13.6714V13.7119H11.7434V4.16735L7.32256 13.7119H6.34882L1.90854 4.16735V13.7119H0V0.288066Z" fill="#122947"/>
<path d="M20.7532 0.288066H22.6618L28.0953 13.7119H26.0699L24.7066 10.3704H18.6889L17.3646 13.7119H15.3197L20.7532 0.288066ZM24.1613 8.738L21.7075 2.45816L19.2537 8.738H24.1613Z" fill="#122947"/>
<path d="M30.2393 0.288066H35.7118C37.1659 0.288066 38.2825 0.633745 39.0615 1.3251C39.8405 2.01646 40.23 3.02789 40.23 4.3594C40.23 5.34522 39.9638 6.18381 39.4315 6.87517C38.8992 7.55373 38.1461 8.01463 37.1724 8.25789L40.1715 13.7119H38.1072L35.2054 8.41152H32.2258V13.7119H30.2393V0.288066ZM35.3807 6.75995C36.2506 6.75995 36.9387 6.5615 37.445 6.16461C37.9644 5.75492 38.224 5.15318 38.224 4.3594C38.224 3.4888 37.9709 2.86786 37.4645 2.49657C36.9712 2.12529 36.2766 1.93964 35.3807 1.93964H32.2258V6.75995H35.3807Z" fill="#122947"/>
<path d="M48.8651 14C47.5148 14 46.2944 13.7119 45.2038 13.1358C44.1132 12.5469 43.2563 11.7211 42.6331 10.6584C42.0099 9.59579 41.6983 8.37952 41.6983 7.0096C41.6983 5.63969 42.0099 4.42341 42.6331 3.36077C43.2563 2.29813 44.1132 1.47234 45.2038 0.883402C46.2944 0.294467 47.5148 0 48.8651 0C50.2154 0 51.4358 0.294467 52.5264 0.883402C53.617 1.47234 54.4739 2.29813 55.0971 3.36077C55.7203 4.42341 56.0319 5.63969 56.0319 7.0096C56.0319 8.37952 55.7203 9.59579 55.0971 10.6584C54.4739 11.7211 53.617 12.5469 52.5264 13.1358C51.4358 13.7119 50.2154 14 48.8651 14ZM48.8651 12.2332C49.8259 12.2332 50.6957 12.0219 51.4747 11.5995C52.2667 11.1642 52.8899 10.556 53.3443 9.77503C53.7987 8.98125 54.0259 8.05944 54.0259 7.0096C54.0259 5.97257 53.7987 5.06356 53.3443 4.28258C52.9029 3.4888 52.2927 2.88066 51.5137 2.45816C50.7347 2.02286 49.8648 1.80521 48.904 1.80521C47.9303 1.80521 47.0474 2.01646 46.2555 2.43896C45.4765 2.86145 44.8533 3.46959 44.3859 4.26338C43.9315 5.05716 43.7042 5.97257 43.7042 7.0096C43.7042 8.05944 43.9315 8.98125 44.3859 9.77503C44.8403 10.556 45.457 11.1642 46.236 11.5995C47.028 12.0219 47.9043 12.2332 48.8651 12.2332Z" fill="#122947"/>
<path d="M64.8596 14C63.5094 14 62.2889 13.7119 61.1983 13.1358C60.1077 12.5469 59.2508 11.7211 58.6276 10.6584C58.0044 9.59579 57.6928 8.37952 57.6928 7.0096C57.6928 5.63969 58.0044 4.42341 58.6276 3.36077C59.2508 2.29813 60.1077 1.47234 61.1983 0.883402C62.2889 0.294467 63.5094 0 64.8596 0C66.2099 0 67.4303 0.294467 68.5209 0.883402C69.6115 1.47234 70.4684 2.29813 71.0916 3.36077C71.7148 4.42341 72.0264 5.63969 72.0264 7.0096C72.0264 8.37952 71.7148 9.59579 71.0916 10.6584C70.4684 11.7211 69.6115 12.5469 68.5209 13.1358C67.4303 13.7119 66.2099 14 64.8596 14ZM64.8596 12.2332C65.8204 12.2332 66.6902 12.0219 67.4692 11.5995C68.2612 11.1642 68.8844 10.556 69.3388 9.77503C69.7932 8.98125 70.0205 8.05944 70.0205 7.0096C70.0205 5.97257 69.7932 5.06356 69.3388 4.28258C68.8974 3.4888 68.2872 2.88066 67.5082 2.45816C66.7292 2.02286 65.8593 1.80521 64.8986 1.80521C63.9248 1.80521 63.042 2.01646 62.25 2.43896C61.471 2.86145 60.8478 3.46959 60.3804 4.26338C59.926 5.05716 59.6988 5.97257 59.6988 7.0096C59.6988 8.05944 59.926 8.98125 60.3804 9.77503C60.8348 10.556 61.4515 11.1642 62.2305 11.5995C63.0225 12.0219 63.8988 12.2332 64.8596 12.2332Z" fill="#122947"/>
<path d="M74.172 0.288066H76.061L82.9941 10.4088V0.288066H85V13.7119H83.0915L76.1584 3.59122V13.7119H74.172V0.288066Z" fill="#122947"/>
</svg>
