<svg width="13" height="17" viewBox="0 0 13 17" fill="none" xmlns="http://www.w3.org/2000/svg">
<path d="M0 17C0 15.2824 0.68482 13.6352 1.90381 12.4206C3.12279 11.2061 4.77609 10.5238 6.5 10.5238C8.22391 10.5238 9.87721 11.2061 11.0962 12.4206C12.3152 13.6352 13 15.2824 13 17H11.375C11.375 15.7118 10.8614 14.4764 9.94715 13.5655C9.03291 12.6546 7.79293 12.1429 6.5 12.1429C5.20707 12.1429 3.96709 12.6546 3.05285 13.5655C2.13861 14.4764 1.625 15.7118 1.625 17H0ZM6.5 9.71429C3.80656 9.71429 1.625 7.54071 1.625 4.85714C1.625 2.17357 3.80656 0 6.5 0C9.19344 0 11.375 2.17357 11.375 4.85714C11.375 7.54071 9.19344 9.71429 6.5 9.71429ZM6.5 8.09524C8.29563 8.09524 9.75 6.64619 9.75 4.85714C9.75 3.0681 8.29563 1.61905 6.5 1.61905C4.70437 1.61905 3.25 3.0681 3.25 4.85714C3.25 6.64619 4.70437 8.09524 6.5 8.09524Z" fill="#122947"/>
</svg>
