<svg height="auto" viewBox="0 0 2000 1000" xmlns="http://www.w3.org/2000/svg"><path d="M0 15.4c21 3.18 63 4.16 105 15.897s63 27.494 105 42.788c42 15.293 63 20.928 105 33.681 42 12.753 63 6.955 105 30.083 42 23.13 63 59.183 105 85.56 42 26.378 63 26.785 105 46.328 42 19.543 63 61.798 105 51.385 42-10.413 63-113.498 105-103.45 42 10.05 63 142.05 105 153.694 42 11.643 63-92.643 105-95.477 42-2.834 63 34.091 105 81.308 42 47.217 63 124.426 105 154.776 42 30.35 63-1.676 105-3.027 42-1.35 63-55.914 105-3.726 42 52.189 63 229.64 105 264.669 42 35.028 63-106.773 105-89.527 42 17.247 63 132.402 105 175.758 42 43.357 63 46.2 105 41.024 42-5.176 84-53.525 105-66.906l5 169.762H0Z" fill="#444cf71a"/><path d="M0 15.4c21 3.18 63 4.16 105 15.897s63 27.494 105 42.788c42 15.293 63 20.928 105 33.681 42 12.753 63 6.955 105 30.083 42 23.13 63 59.183 105 85.56 42 26.378 63 26.785 105 46.328 42 19.543 63 61.798 105 51.385 42-10.413 63-113.498 105-103.45 42 10.05 63 142.05 105 153.694 42 11.643 63-92.643 105-95.477 42-2.834 63 34.091 105 81.308 42 47.217 63 124.426 105 154.776 42 30.35 63-1.676 105-3.027 42-1.35 63-55.914 105-3.726 42 52.189 63 229.64 105 264.669 42 35.028 63-106.773 105-89.527 42 17.247 63 132.402 105 175.758 42 43.357 63 46.2 105 41.024 42-5.176 84-53.525 105-66.906" fill="none" stroke="#444cf7" stroke-width="4"/><g fill="#444cf7"><circle cy="15.4" r="8"/><circle cx="105" cy="31.297" r="8"/><circle cx="210" cy="74.085" r="8"/><circle cx="315" cy="107.766" r="8"/><circle cx="420" cy="137.849" r="8"/><circle cx="525" cy="223.41" r="8"/><circle cx="630" cy="269.737" r="8"/><circle cx="735" cy="321.122" r="8"/><circle cx="840" cy="217.673" r="8"/><circle cx="945" cy="371.366" r="8"/><circle cx="1050" cy="275.889" r="8"/><circle cx="1155" cy="357.197" r="8"/><circle cx="1260" cy="511.973" r="8"/><circle cx="1365" cy="508.946" r="8"/><circle cx="1470" cy="505.22" r="8"/><circle cx="1575" cy="769.889" r="8"/><circle cx="1680" cy="680.362" r="8"/><circle cx="1785" cy="856.12" r="8"/><circle cx="1890" cy="897.144" r="8"/><circle cx="1995" cy="830.238" r="8"/></g></svg>