<svg height="auto" viewBox="0 0 2000 1000" xmlns="http://www.w3.org/2000/svg"><path d="M0 989.595c23.6-6.726 70.8-21.192 118-33.627 47.2-12.436 70.8-16.73 118-28.55 47.2-11.818 70.8-1.89 118-30.546 47.2-28.657 70.8-78.007 118-112.736 47.2-34.728 70.8-36.818 118-60.905 47.2-24.088 70.8-40.198 118-59.534 47.2-19.335 70.8-14.423 118-37.144 47.2-22.722 70.8-97.058 118-76.464 47.2 20.594 70.8 175.548 118 179.433 47.2 3.886 70.8-135.13 118-160.006 47.2-24.877 70.8 30.464 118 35.62 47.2 5.158 70.8 18.481 118-9.834 47.2-28.316 70.8-63.996 118-131.743 47.2-67.747 70.8-212.37 118-206.993 47.2 5.377 70.8 240.933 118 233.877 47.2-7.056 70.8-214.067 118-269.158 47.2-55.09 94.4-5.036 118-6.295l-6 785.01H0Z" fill="#45a2f71a"/><path d="M0 989.595c23.6-6.726 70.8-21.192 118-33.627 47.2-12.436 70.8-16.73 118-28.55 47.2-11.818 70.8-1.89 118-30.546 47.2-28.657 70.8-78.007 118-112.736 47.2-34.728 70.8-36.818 118-60.905 47.2-24.088 70.8-40.198 118-59.534 47.2-19.335 70.8-14.423 118-37.144 47.2-22.722 70.8-97.058 118-76.464 47.2 20.594 70.8 175.548 118 179.433 47.2 3.886 70.8-135.13 118-160.006 47.2-24.877 70.8 30.464 118 35.62 47.2 5.158 70.8 18.481 118-9.834 47.2-28.316 70.8-63.996 118-131.743 47.2-67.747 70.8-212.37 118-206.993 47.2 5.377 70.8 240.933 118 233.877 47.2-7.056 70.8-214.067 118-269.158 47.2-55.09 94.4-5.036 118-6.295" fill="none" stroke="#45a2f7" stroke-width="2"/><g fill="#45a2f7"><circle cy="989.595" r="6"/><circle cx="118" cy="955.968" r="6"/><circle cx="236" cy="927.419" r="6"/><circle cx="354" cy="896.872" r="6"/><circle cx="472" cy="784.136" r="6"/><circle cx="590" cy="723.231" r="6"/><circle cx="708" cy="663.697" r="6"/><circle cx="826" cy="626.553" r="6"/><circle cx="944" cy="550.089" r="6"/><circle cx="1062" cy="729.522" r="6"/><circle cx="1180" cy="569.516" r="6"/><circle cx="1298" cy="605.137" r="6"/><circle cx="1416" cy="595.302" r="6"/><circle cx="1534" cy="463.559" r="6"/><circle cx="1652" cy="256.566" r="6"/><circle cx="1770" cy="490.443" r="6"/><circle cx="1888" cy="221.285" r="6"/><circle cx="2006" cy="214.99" r="6"/></g></svg>