<svg height="auto" viewBox="0 0 2000 1000" xmlns="http://www.w3.org/2000/svg"><path d="M0 1000h64V46.329q0-32-32-32t-32 32ZM80 1000h64V65.222q0-32-32-32t-32 32ZM160 1000h64V89.11q0-32-32-32t-32 32ZM240 1000h64V99.523q0-32-32-32t-32 32ZM320 1000h64V190.603q0-32-32-32t-32 32ZM400 1000h64V204.762q0-32-32-32t-32 32ZM480 1000h64V240.063q0-32-32-32t-32 32ZM560 1000h64V206.485q0-32-32-32t-32 32ZM640 1000h64V289.985q0-32-32-32t-32 32ZM720 1000h64V320.052q0-32-32-32t-32 32ZM800 1000h64V260.926q0-32-32-32t-32 32ZM880 1000h64V390.385q0-32-32-32t-32 32ZM960 1000h64V425.326q0-32-32-32t-32 32ZM1040 1000h64V499.695q0-32-32-32t-32 32ZM1120 1000h64V520.58q0-32-32-32t-32 32ZM1200 1000h64V388.012q0-32-32-32t-32 32ZM1280 1000h64V701.513q0-32-32-32t-32 32ZM1360 1000h64V440.652q0-32-32-32t-32 32ZM1440 1000h64V556.939q0-32-32-32t-32 32ZM1520 1000h64V470.239q0-32-32-32t-32 32ZM1600 1000h64V853.855q0-32-32-32t-32 32ZM1680 1000h64V615.676q0-32-32-32t-32 32ZM1760 1000h64V501.394q0-32-32-32t-32 32ZM1840 1000h64v-83.397q0-32-32-32t-32 32ZM1920 1000h64V552.49q0-32-32-32t-32 32Z" fill="#f7ec77"/></svg>