<svg height="auto" viewBox="0 0 2000 1000" xmlns="http://www.w3.org/2000/svg"><path d="M0 998.665c28.6-12.366 85.8-45.576 143-61.831 57.2-16.256 85.8-7.773 143-19.447s85.8-7.156 143-38.924 85.8-73.729 143-119.918c57.2-46.19 85.8-107.571 143-111.028 57.2-3.458 85.8 100.764 143 93.742 57.2-7.022 85.8-76.843 143-128.853 57.2-52.01 85.8-103.442 143-131.196 57.2-27.753 85.8-14.899 143-7.57 57.2 7.33 85.8 29.903 143 44.215 57.2 14.312 85.8 23.042 143 27.346 57.2 4.304 85.8 66.146 143-5.825 57.2-71.97 85.8-274.471 143-354.027 57.2-79.556 114.4-35 143-43.751L2000 1000H0Z" fill="#45c0f71a"/><path d="M0 998.665c28.6-12.366 85.8-45.576 143-61.831 57.2-16.256 85.8-7.773 143-19.447s85.8-7.156 143-38.924 85.8-73.729 143-119.918c57.2-46.19 85.8-107.571 143-111.028 57.2-3.458 85.8 100.764 143 93.742 57.2-7.022 85.8-76.843 143-128.853 57.2-52.01 85.8-103.442 143-131.196 57.2-27.753 85.8-14.899 143-7.57 57.2 7.33 85.8 29.903 143 44.215 57.2 14.312 85.8 23.042 143 27.346 57.2 4.304 85.8 66.146 143-5.825 57.2-71.97 85.8-274.471 143-354.027 57.2-79.556 114.4-35 143-43.751" fill="none" stroke="#45c0f7" stroke-width="2"/><g fill="#45c0f7"><circle cy="998.665" r="6"/><circle cx="143" cy="936.834" r="6"/><circle cx="286" cy="917.387" r="6"/><circle cx="429" cy="878.463" r="6"/><circle cx="572" cy="758.545" r="6"/><circle cx="715" cy="647.517" r="6"/><circle cx="858" cy="741.259" r="6"/><circle cx="1001" cy="612.406" r="6"/><circle cx="1144" cy="481.21" r="6"/><circle cx="1287" cy="473.64" r="6"/><circle cx="1430" cy="517.855" r="6"/><circle cx="1573" cy="545.201" r="6"/><circle cx="1716" cy="539.376" r="6"/><circle cx="1859" cy="185.349" r="6"/><circle cx="2002" cy="141.598" r="6"/></g></svg>