<svg height="auto" viewBox="0 0 2000 1000" xmlns="http://www.w3.org/2000/svg"><path d="M0 985.676c22.88-8.766 97.24-36.406 143-54.788 45.76-18.383 97.24-53.804 143-60.103 45.76-6.3 97.24 36.636 143 20.734 45.76-15.903 97.24-84.966 143-120.124 45.76-35.16 97.24-87.702 143-99.62 45.76-11.916 97.24 24.09 143 25.138 45.76 1.047 97.24-19.187 143-18.591 45.76.596 97.24 68.52 143 22.317 45.76-46.203 97.24-251.81 143-311.082 45.76-59.272 97.24-83.46 143-59.367 45.76 24.093 97.24 223.573 143 209.951 45.76-13.62 97.24-257.564 143-295.083 45.76-37.519 97.24 83.78 143 60.59 45.76-23.189 120.12-172.642 143-205.527L2000 1000H0Z" fill="#18003e"/><path d="M0 985.676c22.88-8.766 97.24-36.406 143-54.788 45.76-18.383 97.24-53.804 143-60.103 45.76-6.3 97.24 36.636 143 20.734 45.76-15.903 97.24-84.966 143-120.124 45.76-35.16 97.24-87.702 143-99.62 45.76-11.916 97.24 24.09 143 25.138 45.76 1.047 97.24-19.187 143-18.591 45.76.596 97.24 68.52 143 22.317 45.76-46.203 97.24-251.81 143-311.082 45.76-59.272 97.24-83.46 143-59.367 45.76 24.093 97.24 223.573 143 209.951 45.76-13.62 97.24-257.564 143-295.083 45.76-37.519 97.24 83.78 143 60.59 45.76-23.189 120.12-172.642 143-205.527" fill="none"/></svg>