<svg height="auto" viewBox="0 0 2000 1000" xmlns="http://www.w3.org/2000/svg"><path d="M0 16.47c12.8 3.361 54.4 15.173 80 21.013 25.6 5.839 54.4 5.377 80 15.48 25.6 10.104 54.4 38.42 80 47.667 25.6 9.248 54.4-2.835 80 10.13s54.4 63.35 80 70.901c25.6 7.551 54.4-18.082 80-23.707 25.6-5.624 54.4-26.654 80-11.445 25.6 15.208 54.4 98.132 80 106.499 25.6 8.367 54.4-64.52 80-54.206 25.6 10.315 54.4 83.956 80 118.675 25.6 34.718 54.4 82.244 80 98.317 25.6 16.072 54.4 22.808 80 2.136s54.4-153.572 80-131.336c25.6 22.236 54.4 227.101 80 270.312 25.6 43.211 54.4 31.783 80-.243s54.4-196.45 80-199.921c25.6-3.472 54.4 153.326 80 178.221 25.6 24.896 54.4-39.195 80-22.624 25.6 16.57 54.4 113.22 80 126.192 25.6 12.972 54.4-40.26 80-45.118 25.6-4.86 54.4.66 80 14.747s54.4 28.106 80 73.299c25.6 45.192 54.4 167.508 80 209.154 25.6 41.646 54.4 57.19 80 51.134 25.6-6.055 67.2-74.744 80-88.98V1000H0Z" fill="#3d0000"/><path d="M0 16.47c12.8 3.361 54.4 15.173 80 21.013 25.6 5.839 54.4 5.377 80 15.48 25.6 10.104 54.4 38.42 80 47.667 25.6 9.248 54.4-2.835 80 10.13s54.4 63.35 80 70.901c25.6 7.551 54.4-18.082 80-23.707 25.6-5.624 54.4-26.654 80-11.445 25.6 15.208 54.4 98.132 80 106.499 25.6 8.367 54.4-64.52 80-54.206 25.6 10.315 54.4 83.956 80 118.675 25.6 34.718 54.4 82.244 80 98.317 25.6 16.072 54.4 22.808 80 2.136s54.4-153.572 80-131.336c25.6 22.236 54.4 227.101 80 270.312 25.6 43.211 54.4 31.783 80-.243s54.4-196.45 80-199.921c25.6-3.472 54.4 153.326 80 178.221 25.6 24.896 54.4-39.195 80-22.624 25.6 16.57 54.4 113.22 80 126.192 25.6 12.972 54.4-40.26 80-45.118 25.6-4.86 54.4.66 80 14.747s54.4 28.106 80 73.299c25.6 45.192 54.4 167.508 80 209.154 25.6 41.646 54.4 57.19 80 51.134 25.6-6.055 67.2-74.744 80-88.98" fill="none"/></svg>